<?xml version="1.0" encoding="utf-8"?>
<!-- created with bpmn-js / http://bpmn.io -->
<!DOCTYPE svg PUBLIC "-//W3C//DTD SVG 1.1//EN" "http://www.w3.org/Graphics/SVG/1.1/DTD/svg11.dtd">
<svg xmlns="http://www.w3.org/2000/svg" xmlns:xlink="http://www.w3.org/1999/xlink" width="349" height="357" viewBox="129 30.000001907348633 349 357" version="1.1"><defs><pattern id="djs-grid-pattern-188118" width="10" height="10" patternUnits="userSpaceOnUse"><circle cx="0.5" cy="0.5" r="0.5" style="fill: rgb(204, 204, 204);"/></pattern><marker id="sequenceflow-end-white-hsl_225_10_15_-aic442td4310mz0mth3qgas5a" viewBox="0 0 20 20" refX="11" refY="10" markerWidth="10" markerHeight="10" orient="auto"><path d="M 1 5 L 11 10 L 1 15 Z" style="stroke-linecap: round; stroke-linejoin: round; stroke: rgb(34, 36, 42); stroke-width: 1px; fill: rgb(34, 36, 42);"/></marker><marker id="sequenceflow-end-white-var_element_dragger_color_-aic442td4310mz0mth3qgas5a" viewBox="0 0 20 20" refX="11" refY="10" markerWidth="10" markerHeight="10" orient="auto"><path d="M 1 5 L 11 10 L 1 15 Z" style="stroke-linecap: round; stroke-linejoin: round; stroke: var(--element-dragger-color); stroke-width: 1px; fill: var(--element-dragger-color);"/></marker><marker id="association-end-white-var_element_dragger_color_-aic442td4310mz0mth3qgas5a" viewBox="0 0 20 20" refX="11" refY="10" markerWidth="10" markerHeight="10" orient="auto"><path d="M 1 5 L 11 10 L 1 15" style="fill: none; stroke-linecap: round; stroke-linejoin: round; stroke: var(--element-dragger-color); stroke-width: 1.5px; stroke-dasharray: 10000, 1;"/></marker><marker id="association-end-white-hsl_225_10_15_-aic442td4310mz0mth3qgas5a" viewBox="0 0 20 20" refX="11" refY="10" markerWidth="10" markerHeight="10" orient="auto"><path d="M 1 5 L 11 10 L 1 15" style="fill: none; stroke-linecap: round; stroke-linejoin: round; stroke: rgb(34, 36, 42); stroke-width: 1.5px; stroke-dasharray: 10000, 1;"/></marker></defs><g class="djs-group"><g class="djs-element djs-shape" data-element-id="StartEvent_1txi3qa" style="display: block;" transform="matrix(1 0 0 1 156 312)"><g class="djs-visual"><circle cx="18" cy="18" r="18" style="stroke-linecap: round; stroke-linejoin: round; stroke: rgb(34, 36, 42); stroke-width: 2px; fill: white; fill-opacity: 0.95;"/></g><rect class="djs-hit djs-hit-all" x="0" y="0" width="36" height="36" style="fill: none; stroke-opacity: 0; stroke: white; stroke-width: 15px;"/><circle cx="18" cy="18" r="23" class="djs-outline" style="fill: none;"/></g></g><g class="djs-group"><g class="djs-element djs-shape" data-element-id="StartEvent_1txi3qa_label" style="display: block;" transform="matrix(1 0 0 1 134 355)"><g class="djs-visual"><text lineHeight="1.2" class="djs-label" style="font-family: Arial, sans-serif; font-size: 11px; font-weight: normal; fill: rgb(34, 36, 42);"><tspan x="0" y="9.899999999999999">Primer uso de la </tspan><tspan x="15.855144500732422" y="23.099999999999998">aplicación</tspan></text></g><rect class="djs-hit djs-hit-all" x="0" y="0" width="81" height="27" style="fill: none; stroke-opacity: 0; stroke: white; stroke-width: 15px;"/><rect x="-5" y="-5" rx="4" width="91" height="37" class="djs-outline" style="fill: none;"/></g></g><g class="djs-group"><g class="djs-element djs-shape" data-element-id="Activity_1tcjezw" style="display: block;" transform="matrix(1 0 0 1 245 290)"><g class="djs-visual"><rect x="0" y="0" width="100" height="80" rx="10" ry="10" style="stroke-linecap: round; stroke-linejoin: round; stroke: rgb(34, 36, 42); stroke-width: 2px; fill: white; fill-opacity: 0.95;"/><text lineHeight="1.2" class="djs-label" style="font-family: Arial, sans-serif; font-size: 12px; font-weight: normal; fill: rgb(34, 36, 42);"><tspan x="17.645832061767578" y="36.4">Creación de </tspan><tspan x="16.3125" y="50.8">credenciales</tspan></text><path d="m 15,12 c 0.909,-0.845 1.594,-2.049 1.594,-3.385 0,-2.554 -1.805,-4.62199999 -4.357,-4.62199999 -2.55199998,0 -4.28799998,2.06799999 -4.28799998,4.62199999 0,1.348 0.974,2.562 1.89599998,3.405 -0.52899998,0.187 -5.669,2.097 -5.794,4.7560005 v 6.718 h 17 v -6.718 c 0,-2.2980005 -5.5279996,-4.5950005 -6.0509996,-4.7760005 zm -8,6 l 0,5.5 m 11,0 l 0,-5" style="fill: white; stroke-linecap: round; stroke-linejoin: round; stroke: rgb(34, 36, 42); stroke-width: 0.5px;"/><path d="m 15,12 m 2.162,1.009 c 0,2.4470005 -2.158,4.4310005 -4.821,4.4310005 -2.66499998,0 -4.822,-1.981 -4.822,-4.4310005 " style="fill: white; stroke-linecap: round; stroke-linejoin: round; stroke: rgb(34, 36, 42); stroke-width: 0.5px;"/><path d="m 15,12 m -6.9,-3.80 c 0,0 2.25099998,-2.358 4.27399998,-1.177 2.024,1.181 4.221,1.537 4.124,0.965 -0.098,-0.57 -0.117,-3.79099999 -4.191,-4.13599999 -3.57499998,0.001 -4.20799998,3.36699999 -4.20699998,4.34799999 z" style="fill: rgb(34, 36, 42); stroke-linecap: round; stroke-linejoin: round; stroke: rgb(34, 36, 42); stroke-width: 0.5px;"/></g><rect class="djs-hit djs-hit-all" x="0" y="0" width="100" height="80" style="fill: none; stroke-opacity: 0; stroke: white; stroke-width: 15px;"/><rect x="-5" y="-5" rx="14" width="110" height="90" class="djs-outline" style="fill: none;"/></g></g><g class="djs-group"><g class="djs-element djs-shape" data-element-id="Event_1jf9w7i" style="display: block;" transform="matrix(1 0 0 1 277 182)"><g class="djs-visual"><circle cx="18" cy="18" r="18" style="stroke-linecap: round; stroke-linejoin: round; stroke: rgb(34, 36, 42); stroke-width: 1.5px; fill: white; fill-opacity: 0.95;"/><circle cx="18" cy="18" r="15" style="stroke-linecap: round; stroke-linejoin: round; stroke: rgb(34, 36, 42); stroke-width: 1.5px; fill: none;"/><path d="m 8.459999999999999,11.34 l 0,12.6 l 18.900000000000002,0 l 0,-12.6 z l 9.450000000000001,5.4 l 9.450000000000001,-5.4" style="fill: white; stroke-linecap: round; stroke-linejoin: round; stroke: rgb(34, 36, 42); stroke-width: 1px;"/></g><rect class="djs-hit djs-hit-all" x="0" y="0" width="36" height="36" style="fill: none; stroke-opacity: 0; stroke: white; stroke-width: 15px;"/><circle cx="18" cy="18" r="23" class="djs-outline" style="fill: none;"/></g></g><g class="djs-group"><g class="djs-element djs-shape" data-element-id="DataStoreReference_1d4hqfo" style="display: block;" transform="matrix(1 0 0 1 270 65)"><g class="djs-visual"><path d="m  0,6.65 l  0,36.885245901639344 c  1.639344262295082,8.196721311475411 47.540983606557376,8.196721311475411  49.18032786885246,0 l  0,-36.885245901639344 c -1.639344262295082,-8.196721311475411 -47.540983606557376,-8.196721311475411 -49.18032786885246,0c  1.639344262295082,8.196721311475411 47.540983606557376,8.196721311475411  49.18032786885246,0 m  -49.18032786885246,5.737704918032787c  1.639344262295082,8.196721311475411 47.540983606557376,8.196721311475411 49.18032786885246,0m  -49.18032786885246,5.737704918032787c  1.639344262295082,8.196721311475411 47.540983606557376,8.196721311475411  49.18032786885246,0" style="fill: white; stroke-linecap: round; stroke-linejoin: round; stroke: rgb(34, 36, 42); stroke-width: 2px; fill-opacity: 0.95;"/></g><rect class="djs-hit djs-hit-all" x="0" y="0" width="50" height="50" style="fill: none; stroke-opacity: 0; stroke: white; stroke-width: 15px;"/><path d="M1.03845 48.1347C1.03845 49.3511 1.07295 50.758 1.38342 52.064C1.69949 53.3938 2.32428 54.7154 3.56383 55.6428C6.02533 57.4841 10.1161 58.7685 14.8212 59.6067C19.5772 60.4538 25.1388 60.8738 30.6831 60.8738C36.2276 60.8738 41.7891 60.4538 46.545 59.6067C51.2504 58.7687 55.3412 57.4842 57.8028 55.6429C59.0424 54.7156 59.6673 53.3938 59.9834 52.064C60.2938 50.7579 60.3285 49.351 60.3285 48.1344V13.8415C60.3285 12.6249 60.2938 11.218 59.9834 9.91171C59.6673 8.58194 59.0423 7.2602 57.8027 6.33294C55.341 4.49168 51.2503 3.20723 46.545 2.36914C41.7891 1.522 36.2276 1.10204 30.6831 1.10205C25.1388 1.10206 19.5772 1.52206 14.8213 2.36923C10.1162 3.20734 6.02543 4.49183 3.5639 6.33314C2.32433 7.26038 1.69951 8.58206 1.38343 9.91181C1.07295 11.2179 1.03845 12.6247 1.03845 13.8411V48.1347Z" transform="translate(-6, -6)" class="djs-outline" style="stroke-width: 2px; fill: none;"/></g></g><g class="djs-group"><g class="djs-element djs-shape" data-element-id="Event_1hxv2ny" style="display: block;" transform="matrix(1 0 0 1 422 312)"><g class="djs-visual"><circle cx="18" cy="18" r="18" style="stroke-linecap: round; stroke-linejoin: round; stroke: rgb(34, 36, 42); stroke-width: 4px; fill: white; fill-opacity: 0.95;"/></g><rect class="djs-hit djs-hit-all" x="0" y="0" width="36" height="36" style="fill: none; stroke-opacity: 0; stroke: white; stroke-width: 15px;"/><circle cx="18" cy="18" r="24" class="djs-outline" style="fill: none;"/></g></g><g class="djs-group"><g class="djs-element djs-connection" data-element-id="Flow_1efygb2" style="display: block;"><g class="djs-visual"><path data-corner-radius="5" style="fill: none; stroke-linecap: round; stroke-linejoin: round; stroke: rgb(34, 36, 42); stroke-width: 2px; marker-end: url('#sequenceflow-end-white-hsl_225_10_15_-aic442td4310mz0mth3qgas5a');" d="M192,330L245,330"/></g><path d="M192,330L245,330" class="djs-hit djs-hit-stroke" style="fill: none; stroke-opacity: 0; stroke: white; stroke-width: 15px;"/><rect x="187" y="325" rx="4" width="63" height="10" class="djs-outline" style="fill: none;"/></g></g><g class="djs-group"><g class="djs-element djs-connection" data-element-id="Flow_1ccclw0" style="display: block;"><g class="djs-visual"><path data-corner-radius="5" style="fill: none; stroke-linecap: round; stroke-linejoin: round; stroke: rgb(34, 36, 42); stroke-width: 2px; marker-end: url('#sequenceflow-end-white-hsl_225_10_15_-aic442td4310mz0mth3qgas5a');" d="M295,290L295,218"/></g><path d="M295,290L295,218" class="djs-hit djs-hit-stroke" style="fill: none; stroke-opacity: 0; stroke: white; stroke-width: 15px;"/><rect x="290" y="213" rx="4" width="10" height="82" class="djs-outline" style="fill: none;"/></g></g><g class="djs-group"><g class="djs-element djs-connection" data-element-id="DataOutputAssociation_1fr4txn" style="display: block;"><g class="djs-visual"><path data-corner-radius="5" style="fill: none; stroke-linecap: round; stroke-linejoin: round; stroke: rgb(34, 36, 42); stroke-width: 2px; marker-end: url('#association-end-white-hsl_225_10_15_-aic442td4310mz0mth3qgas5a'); stroke-dasharray: 0, 5;" d="M295,182L295,115"/></g><path d="M295,182L295,115" class="djs-hit djs-hit-stroke" style="fill: none; stroke-opacity: 0; stroke: white; stroke-width: 15px;"/><rect x="290" y="110" rx="4" width="10" height="77" class="djs-outline" style="fill: none;"/></g></g><g class="djs-group"><g class="djs-element djs-shape" data-element-id="DataStoreReference_1d4hqfo_label" style="display: block;" transform="matrix(1 0 0 1 252 35)"><g class="djs-visual"><text lineHeight="1.2" class="djs-label" style="font-family: Arial, sans-serif; font-size: 11px; font-weight: normal; fill: rgb(34, 36, 42);"><tspan x="0" y="9.899999999999999">Base de datos de </tspan><tspan x="22.045982360839844" y="23.099999999999998">usuarios</tspan></text></g><rect class="djs-hit djs-hit-all" x="0" y="0" width="87" height="27" style="fill: none; stroke-opacity: 0; stroke: white; stroke-width: 15px;"/><rect x="-5" y="-5" rx="4" width="97" height="37" class="djs-outline" style="fill: none;"/></g></g><g class="djs-group"><g class="djs-element djs-shape" data-element-id="Event_1jf9w7i_label" style="display: block;" transform="matrix(1 0 0 1 190 190)"><g class="djs-visual"><text lineHeight="1.2" class="djs-label" style="font-family: Arial, sans-serif; font-size: 11px; font-weight: normal; fill: rgb(34, 36, 42);"><tspan x="0" y="9.899999999999999">Credenciales</tspan></text></g><rect class="djs-hit djs-hit-all" x="0" y="0" width="65" height="14" style="fill: none; stroke-opacity: 0; stroke: white; stroke-width: 15px;"/><rect x="-5" y="-5" rx="4" width="75" height="24" class="djs-outline" style="fill: none;"/></g></g><g class="djs-group"><g class="djs-element djs-connection" data-element-id="Flow_1sxw5wf" style="display: block;"><g class="djs-visual"><path data-corner-radius="5" style="fill: none; stroke-linecap: round; stroke-linejoin: round; stroke: rgb(34, 36, 42); stroke-width: 2px; marker-end: url('#sequenceflow-end-white-hsl_225_10_15_-aic442td4310mz0mth3qgas5a');" d="M345,330L422,330"/></g><path d="M345,330L422,330" class="djs-hit djs-hit-stroke" style="fill: none; stroke-opacity: 0; stroke: white; stroke-width: 15px;"/><rect x="340" y="325" rx="4" width="87" height="10" class="djs-outline" style="fill: none;"/></g></g><g class="djs-group"><g class="djs-element djs-shape" data-element-id="Event_1hxv2ny_label" style="display: block;" transform="matrix(1 0 0 1 408 355)"><g class="djs-visual"><text lineHeight="1.2" class="djs-label" style="font-family: Arial, sans-serif; font-size: 11px; font-weight: normal; fill: rgb(34, 36, 42);"><tspan x="0" y="9.899999999999999">Credenciales </tspan><tspan x="11.3115234375" y="23.099999999999998">Creadas</tspan></text></g><rect class="djs-hit djs-hit-all" x="0" y="0" width="65" height="27" style="fill: none; stroke-opacity: 0; stroke: white; stroke-width: 15px;"/><rect x="-5" y="-5" rx="4" width="75" height="37" class="djs-outline" style="fill: none;"/></g></g></svg>